<?xml version="1.0" standalone="no"?>
<!DOCTYPE svg PUBLIC "-//W3C//DTD SVG 20010904//EN"
 "http://www.w3.org/TR/2001/REC-SVG-20010904/DTD/svg10.dtd">
<svg version="1.0" xmlns="http://www.w3.org/2000/svg"
 width="1024.000000pt" height="1024.000000pt" viewBox="0 0 1024.000000 1024.000000"
 preserveAspectRatio="xMidYMid meet">
<metadata>
Created by potrace 1.16, written by Peter Selinger 2001-2019
</metadata>
<g transform="translate(0.000000,1024.000000) scale(0.100000,-0.100000)"
fill="#000000" stroke="none">
<path d="M1345 6515 c-141 -29 -262 -113 -308 -213 -18 -38 -22 -65 -22 -142
0 -200 70 -270 423 -420 153 -66 192 -98 192 -161 -1 -73 -39 -103 -148 -119
-101 -14 -331 15 -434 55 -17 7 -18 -3 -18 -113 l0 -121 56 -11 c162 -34 407
-41 528 -15 218 46 349 183 350 365 1 193 -72 268 -414 425 -190 87 -226 115
-216 174 11 73 75 101 226 100 87 0 170 -16 288 -54 22 -7 22 -7 22 108 l0
114 -107 18 c-149 24 -330 28 -418 10z"/>
<path d="M8675 6523 c-114 -15 -235 -73 -298 -143 -105 -117 -110 -307 -12
-436 36 -47 151 -115 310 -184 176 -76 219 -102 235 -139 15 -37 6 -92 -18
-113 -74 -65 -264 -71 -483 -14 l-89 23 0 -118 c0 -136 -14 -121 130 -144 142
-22 367 -20 466 5 209 54 321 169 332 346 7 111 -16 173 -94 251 -56 57 -82
72 -287 172 -134 65 -230 118 -236 130 -33 61 5 131 83 152 89 24 295 1 422
-48 11 -4 14 16 14 110 l0 114 -37 7 c-188 32 -338 42 -438 29z"/>
<path d="M2170 5885 l0 -625 175 0 175 0 0 625 0 625 -175 0 -175 0 0 -625z"/>
<path d="M2850 5885 l0 -625 450 0 450 0 0 115 0 115 -285 0 -285 0 0 155 0
155 240 0 240 0 0 100 0 100 -240 0 -240 0 0 145 0 145 280 0 280 0 0 110 0
110 -445 0 -445 0 0 -625z"/>
<path d="M3990 5885 l0 -625 120 0 120 0 0 442 c0 246 4 438 9 433 4 -6 86
-207 182 -448 l174 -437 108 2 109 3 181 445 182 445 3 -442 2 -443 165 0 165
0 0 625 0 625 -213 0 -213 0 -144 -357 c-79 -197 -153 -378 -163 -402 -19 -44
-20 -44 -32 -20 -6 13 -78 194 -160 402 l-148 377 -223 0 -224 0 0 -625z"/>
<path d="M5840 5885 l0 -625 450 0 450 0 0 115 0 115 -285 0 -285 0 0 155 0
155 245 0 245 0 0 100 0 100 -245 0 -245 0 0 145 0 145 280 0 280 0 0 110 0
110 -445 0 -445 0 0 -625z"/>
<path d="M6980 5885 l0 -625 120 0 120 0 0 428 c1 374 2 425 15 408 8 -11 110
-203 226 -428 l212 -408 193 0 194 0 0 625 0 625 -120 0 -120 0 -2 -420 -3
-420 -215 420 -215 420 -202 0 -203 0 0 -625z"/>
<path d="M1350 4970 c-133 -13 -259 -101 -313 -217 -21 -47 -22 -57 -22 -408
0 -413 -1 -407 94 -508 67 -71 139 -105 244 -117 101 -12 585 -12 685 -1 186
22 325 160 340 337 l5 64 -80 0 -81 0 -4 -52 c-8 -99 -79 -171 -184 -188 -77
-13 -602 -13 -679 0 -77 13 -131 50 -164 115 l-26 49 0 301 0 301 26 49 c34
67 87 103 169 115 83 12 585 12 667 1 78 -12 132 -48 168 -112 23 -42 25 -58
25 -158 l0 -111 -330 0 -330 0 0 -85 0 -85 411 0 410 0 -3 218 c-3 211 -4 219
-30 274 -59 127 -167 201 -318 218 -94 11 -577 11 -680 0z"/>
<path d="M2929 4970 c-165 -20 -293 -136 -328 -298 -7 -35 -11 -208 -11 -502
l0 -450 80 0 80 0 0 451 c0 314 4 464 12 490 16 53 69 113 120 135 37 15 79
19 283 22 266 4 338 -4 396 -43 20 -14 48 -48 63 -74 l26 -49 0 -466 0 -466
80 0 81 0 -3 488 -3 487 -27 57 c-57 122 -166 199 -308 218 -87 11 -445 11
-541 0z"/>
<path d="M4358 4970 c-135 -16 -243 -91 -301 -209 l-32 -66 0 -350 0 -350 32
-66 c59 -119 168 -194 307 -210 98 -11 583 -11 683 1 105 12 177 46 243 116
62 66 91 129 97 217 l6 67 -76 0 -75 0 -6 -30 c-3 -16 -9 -43 -12 -59 -9 -48
-58 -106 -111 -132 -48 -24 -49 -24 -403 -24 -393 0 -403 1 -465 62 -64 62
-65 68 -65 409 0 337 1 344 64 406 59 60 72 62 406 66 352 4 434 -3 494 -45
65 -45 87 -102 94 -233 l5 -110 -337 0 -336 0 0 -85 0 -85 411 0 410 0 -3 223
c-3 221 -3 222 -31 277 -63 122 -174 196 -317 211 -95 10 -593 9 -682 -1z"/>
<path d="M6769 4970 c-163 -19 -285 -124 -324 -278 -24 -92 -17 -665 8 -732
24 -63 83 -137 140 -177 90 -61 119 -65 457 -70 451 -7 542 9 646 113 93 93
116 182 112 429 l-3 170 -410 0 -410 0 0 -80 0 -80 333 -3 332 -2 0 -91 c0
-115 -14 -168 -56 -218 -63 -73 -80 -76 -484 -76 -345 0 -356 1 -395 22 -51
27 -90 68 -109 115 -13 31 -16 88 -16 333 0 245 3 302 16 333 19 47 58 88 109
115 39 21 50 22 400 22 l360 0 49 -25 c68 -34 105 -83 119 -159 l12 -61 77 0
c89 0 89 -1 67 102 -36 168 -161 278 -342 298 -96 11 -592 11 -688 0z"/>
<path d="M5874 4952 c-101 -35 -175 -107 -226 -217 -23 -50 -23 -54 -26 -532
l-3 -483 80 0 81 0 0 451 c0 310 4 464 11 490 16 52 64 108 113 130 35 16 68
19 224 19 l182 0 0 80 0 80 -192 0 c-157 -1 -202 -4 -244 -18z"/>
<path d="M7847 4948 c11 -13 140 -166 286 -340 l266 -318 45 59 c26 33 46 64
46 70 0 7 -102 133 -227 281 l-226 270 -105 0 -105 0 20 -22z"/>
<path d="M8772 4597 c-159 -211 -293 -398 -309 -432 -27 -58 -28 -67 -31 -252
l-4 -193 81 0 81 0 0 164 c0 117 4 175 14 205 11 30 376 526 639 869 7 9 -12
12 -90 12 l-100 0 -281 -373z"/>
</g>
</svg>
